<svg
          width="42"
          height="12"
          viewBox="0 0 42 12"
          fill="none"
          xmlns="http://www.w3.org/2000/svg"
        >
          <path
            d="M35.5118 7.91206L36.4305 6.9873H26.5632C26.3316 6.9873 26.1146 7.07742 25.951 7.24102L24.7647 8.42712C24.4271 8.76403 24.4271 9.31375 24.7647 9.65065L24.9796 9.86555C25.1433 10.0292 25.3603 10.1193 25.5918 10.1193H33.3209L34.2389 9.19452H25.6161L25.4601 9.03854L26.5874 7.91206H35.5118Z"
            fill="currentcolor"
          ></path>
          <path
            d="M7.76189 9.19452L8.67984 10.1193H16.7438C16.9747 10.1193 17.1924 10.0292 17.356 9.86555L17.5702 9.65065C17.9079 9.31306 17.9079 8.76403 17.5702 8.42643L16.3847 7.24102C16.2211 7.07742 16.0033 6.9873 15.7725 6.9873H5.57031L6.48757 7.91137H15.7475L16.8748 9.03854L16.7189 9.19452H7.76189Z"
            fill="currentcolor"
          ></path>
          <path
            d="M25.6945 1.88086C24.8562 1.88086 24.0679 2.20737 23.4744 2.80076L21.1678 5.1071L18.8604 2.80007C18.2676 2.20737 17.4793 1.88086 16.6404 1.88086H0.5L1.41795 2.80561H16.6404C17.2318 2.80561 17.7886 3.03576 18.2066 3.45378L20.514 5.76081L19.4373 6.83738L17.5494 4.94974C17.2887 4.68909 16.9427 4.5456 16.5739 4.5456H3.1457L4.06434 5.47035H16.5739C16.6952 5.47035 16.8096 5.51749 16.8956 5.60345L20.2692 8.97735C20.5299 9.23731 20.8766 9.3808 21.2447 9.3808C21.6129 9.3808 21.9596 9.23731 22.2202 8.97735L25.5939 5.60345C25.6799 5.51749 25.7943 5.47035 25.9156 5.47035H37.9364L38.8543 4.5456H25.9156C25.5475 4.5456 25.2008 4.68909 24.9401 4.94974L22.9753 6.91433L21.8216 5.76081L24.1282 3.45447C24.547 3.03576 25.1031 2.80561 25.6945 2.80561H40.582L41.5 1.88086L25.6945 1.88086ZM21.5664 8.32364C21.4805 8.40891 21.3661 8.45674 21.2447 8.45674C21.1234 8.45674 21.009 8.40891 20.9237 8.32364L20.0911 7.49109L21.1678 6.41452L22.3215 7.56803L21.5664 8.32364Z"
            fill="currentcolor"
          ></path>
        </svg>